HIERARCHY
ROOT Hips
{
  OFFSET 5.84602e-005 68.8428 3.50346
  CHANNELS 6 Xposition Yposition Zposition Zrotation Xrotation Yrotation
  JOINT Spine
  {
    OFFSET 0 8.597 -4.6522
    CHANNELS 3 Zrotation Xrotation Yrotation
    JOINT Spine1
    {
      OFFSET 0 7.8454 0.4098
      CHANNELS 3 Zrotation Xrotation Yrotation
      JOINT Spine2
      {
        OFFSET 0 9.7078 -2.1609
        CHANNELS 3 Zrotation Xrotation Yrotation
        JOINT Neck
        {
          OFFSET 0 21.8761 -0.4549
          CHANNELS 3 Zrotation Xrotation Yrotation
          JOINT Head
          {
            OFFSET 0 12.3537 3.3602
            CHANNELS 3 Zrotation Xrotation Yrotation
            End Site
            {
              OFFSET 0.0001 18.9506 0.5657
            }
          }
        }
        JOINT LeftShoulder
        {
          OFFSET 2.2086 21.1115 7.2329
          CHANNELS 3 Zrotation Xrotation Yrotation
          JOINT LeftArm
          {
            OFFSET 13.1193 3.0282 -4.8998
            CHANNELS 3 Zrotation Xrotation Yrotation
            JOINT LeftForeArm
            {
              OFFSET 27.4081 -0.0973053 -0.2375
              CHANNELS 3 Zrotation Xrotation Yrotation
              JOINT LeftHand
              {
                OFFSET 22.8641 0.0662994 -0.1369
                CHANNELS 3 Zrotation Xrotation Yrotation
                JOINT LeftHandIndex1
                {
                  OFFSET 8.8614 0.775009 2.4612
                  CHANNELS 3 Zrotation Xrotation Yrotation
                  JOINT LeftHandIndex2
                  {
                    OFFSET 3.3146 -0.808304 0.5841
                    CHANNELS 3 Zrotation Xrotation Yrotation
                    JOINT LeftHandIndex3
                    {
                      OFFSET 2.2628 -0.552002 0.3989
                      CHANNELS 3 Zrotation Xrotation Yrotation
                      End Site
                      {
                        OFFSET 1.6102 -0.4807 0.2612
                      }
                    }
                  }
                }
                JOINT LeftHandMiddle1
                {
                  OFFSET 8.9937 0.895004 0.2143
                  CHANNELS 3 Zrotation Xrotation Yrotation
                  JOINT LeftHandMiddle2
                  {
                    OFFSET 4.0984 0.0113983 -0.0242
                    CHANNELS 3 Zrotation Xrotation Yrotation
                    JOINT LeftHandMiddle3
                    {
                      OFFSET 2.2716 0.00689697 -0.0138001
                      CHANNELS 3 Zrotation Xrotation Yrotation
                      End Site
                      {
                        OFFSET 2.0404 -0.1441 0.0027
                      }
                    }
                  }
                }
                JOINT LeftHandRing1
                {
                  OFFSET 8.5234 0.597198 -2.0164
                  CHANNELS 3 Zrotation Xrotation Yrotation
                  JOINT LeftHandRing2
                  {
                    OFFSET 3.7188 -0.188293 -0.2328
                    CHANNELS 3 Zrotation Xrotation Yrotation
                    JOINT LeftHandRing3
                    {
                      OFFSET 2.1191 -0.106598 -0.1332
                      CHANNELS 3 Zrotation Xrotation Yrotation
                      End Site
                      {
                        OFFSET 1.8737 -0.2304 -0.0886
                      }
                    }
                  }
                }
                JOINT LeftHandPinky1
                {
                  OFFSET 7.9094 -0.601089 -3.4825
                  CHANNELS 3 Zrotation Xrotation Yrotation
                  JOINT LeftHandPinky2
                  {
                    OFFSET 2.2874 -0.477005 -0.6314
                    CHANNELS 3 Zrotation Xrotation Yrotation
                    JOINT LeftHandPinky3
                    {
                      OFFSET 1.6774 -0.349396 -0.4633
                      CHANNELS 3 Zrotation Xrotation Yrotation
                      End Site
                      {
                        OFFSET 1.4888 -0.4091 -0.3416
                      }
                    }
                  }
                }
                JOINT LeftHandThumb1
                {
                  OFFSET 1.833 -1.3875 1.3896
                  CHANNELS 3 Zrotation Xrotation Yrotation
                  JOINT LeftHandThumb2
                  {
                    OFFSET 3.4129 -1.121 2.5732
                    CHANNELS 3 Zrotation Xrotation Yrotation
                    JOINT LeftHandThumb3
                    {
                      OFFSET 2.2474 -0.804199 1.6192
                      CHANNELS 3 Zrotation Xrotation Yrotation
                      End Site
                      {
                        OFFSET 1.6527 -0.5689 1.1317
                      }
                    }
                  }
                }
              }
            }
          }
        }
        JOINT RightShoulder
        {
          OFFSET -2.2086 21.1115 7.2329
          CHANNELS 3 Zrotation Xrotation Yrotation
          JOINT RightArm
          {
            OFFSET -13.1216 3.0287 -4.9007
            CHANNELS 3 Zrotation Xrotation Yrotation
            JOINT RightForeArm
            {
              OFFSET -27.4081 -0.0973053 -0.2375
              CHANNELS 3 Zrotation Xrotation Yrotation
              JOINT RightHand
              {
                OFFSET -22.8641 0.0664063 -0.1369
                CHANNELS 3 Zrotation Xrotation Yrotation
                JOINT RightHandIndex1
                {
                  OFFSET -8.8614 0.774994 2.4612
                  CHANNELS 3 Zrotation Xrotation Yrotation
                  JOINT RightHandIndex2
                  {
                    OFFSET -3.3146 -0.808304 0.5841
                    CHANNELS 3 Zrotation Xrotation Yrotation
                    JOINT RightHandIndex3
                    {
                      OFFSET -2.2628 -0.552002 0.3989
                      CHANNELS 3 Zrotation Xrotation Yrotation
                      End Site
                      {
                        OFFSET -1.6102 -0.4807 0.2612
                      }
                    }
                  }
                }
                JOINT RightHandMiddle1
                {
                  OFFSET -8.9937 0.894989 0.2143
                  CHANNELS 3 Zrotation Xrotation Yrotation
                  JOINT RightHandMiddle2
                  {
                    OFFSET -4.0984 0.0113983 -0.0242
                    CHANNELS 3 Zrotation Xrotation Yrotation
                    JOINT RightHandMiddle3
                    {
                      OFFSET -2.2716 0.00691223 -0.0138001
                      CHANNELS 3 Zrotation Xrotation Yrotation
                      End Site
                      {
                        OFFSET -2.0404 -0.1441 0.0027
                      }
                    }
                  }
                }
                JOINT RightHandRing1
                {
                  OFFSET -8.5234 0.597198 -2.0164
                  CHANNELS 3 Zrotation Xrotation Yrotation
                  JOINT RightHandRing2
                  {
                    OFFSET -3.7188 -0.188309 -0.2328
                    CHANNELS 3 Zrotation Xrotation Yrotation
                    JOINT RightHandRing3
                    {
                      OFFSET -2.1191 -0.106598 -0.1332
                      CHANNELS 3 Zrotation Xrotation Yrotation
                      End Site
                      {
                        OFFSET -1.8737 -0.2304 -0.0886
                      }
                    }
                  }
                }
                JOINT RightHandPinky1
                {
                  OFFSET -7.9094 -0.601105 -3.4825
                  CHANNELS 3 Zrotation Xrotation Yrotation
                  JOINT RightHandPinky2
                  {
                    OFFSET -2.2874 -0.477005 -0.6314
                    CHANNELS 3 Zrotation Xrotation Yrotation
                    JOINT RightHandPinky3
                    {
                      OFFSET -1.6774 -0.349396 -0.4633
                      CHANNELS 3 Zrotation Xrotation Yrotation
                      End Site
                      {
                        OFFSET -1.4888 -0.4091 -0.3416
                      }
                    }
                  }
                }
                JOINT RightHandThumb1
                {
                  OFFSET -1.833 -1.38751 1.3896
                  CHANNELS 3 Zrotation Xrotation Yrotation
                  JOINT RightHandThumb2
                  {
                    OFFSET -3.41299 -1.12099 2.5732
                    CHANNELS 3 Zrotation Xrotation Yrotation
                    JOINT RightHandThumb3
                    {
                      OFFSET -2.24741 -0.804108 1.6192
                      CHANNELS 3 Zrotation Xrotation Yrotation
                      End Site
                      {
                        OFFSET -1.6527 -0.5689 1.1317
                      }
                    }
                  }
                }
              }
            }
          }
        }
      }
    }
  }
  JOINT RightUpLeg
  {
    OFFSET -9.1966 3.8861 -0.7581
    CHANNELS 3 Zrotation Xrotation Yrotation
    JOINT RightLeg
    {
      OFFSET -0.7359 -41.0265 0
      CHANNELS 3 Zrotation Xrotation Yrotation
      JOINT RightFoot
      {
        OFFSET 0 -40.2855 0
        CHANNELS 3 Zrotation Xrotation Yrotation
        JOINT RightToeBase
        {
          OFFSET 0 -5.6122 11.7359
          CHANNELS 3 Zrotation Xrotation Yrotation
          End Site
          {
            OFFSET 0 0 7.8731
          }
        }
      }
    }
  }
  JOINT LeftUpLeg
  {
    OFFSET 9.1965 3.8864 -0.7581
    CHANNELS 3 Zrotation Xrotation Yrotation
    JOINT LeftLeg
    {
      OFFSET 0.7359 -41.0268 0
      CHANNELS 3 Zrotation Xrotation Yrotation
      JOINT LeftFoot
      {
        OFFSET 0 -40.2855 0
        CHANNELS 3 Zrotation Xrotation Yrotation
        JOINT LeftToeBase
        {
          OFFSET 0 -5.6122 11.7359
          CHANNELS 3 Zrotation Xrotation Yrotation
          End Site
          {
            OFFSET 0 0 7.8731
          }
        }
      }
    }
  }
}
MOTION
Frames:	4
Frame Time:	0.0333333
5.84602e-005 68.8428 3.50346 0 0 -0 0 0 -0 0 0 -0 0 0 -0 0 0 -0 0 0 -0 0 0 -0 0 0 -0 0 0 -0 0 0 -0 0 0 -0 0 0 -0 0 0 -0 0 0 -0 -0.0146107 -8.87603e-005 -2.63497e-007 2.99804e-018 -2.42657e-020 -1.42182e-022 0 0 -0 -0.0187562 -0.001176 5.858e-005 5.06224e-018 3.88251e-019 1.21329e-020 0 0 -0 -0.012269 -0.00324817 0.000675346 -1.74678e-018 3.88251e-019 -0 0 0 -0 0 0 -0 0 0 -0 0 0 -0 0 0 -0 0 0 -0 0 0 -0 0 0 -0 0 0 -0 0 0 -0 0 0 -0 0.0149955 -9.10982e-005 2.64101e-007 -9.69331e-018 1.21329e-020 -4.7394e-023 0 0 -0 0.0189956 -0.00119102 -5.96516e-005 -5.41541e-019 0 2.42657e-020 0 0 -0 0.0122698 -0.00324857 -0.000673756 -2.00796e-019 0 -1.94126e-019 0 0 -0 0 0 -0 0 0 -0 3.39842 1.33031 -0.0637918 -5.65207e-008 0.834868 -0.000436188 -3.39935 -2.16518 -0.0642563 -8.89002e-024 -1.18485e-023 -1.48106e-024 -3.39844 1.35642 0.0640283 -3.18788e-007 0.782166 -0.000588827 3.39931 -2.13858 0.0634662 1.1399e-023 0 -0 
1.45649 67.7331 66.7342 -8.00276e-015 -7.99933 180 -0.184761 4.40244 -0.372964 -0.342199 8.80594 -0.734907 -0.342199 8.80595 -0.734908 0.117153 0.173108 -0.000173886 3.68832e-008 0.117155 4.7598e-007 -5.61498 3.28754 -20.0972 -61.1585 -1.95156 -15.9101 -10.1359 17.032 -54.3251 6.4473 3.40752 0.19874 -1.10302e-006 1.24141e-006 1.58328e-006 1.88107e-006 5.08572e-006 -3.54387e-007 2.00946e-008 2.54625e-006 9.98868e-007 -1.10302e-006 1.24141e-006 1.58328e-006 -0.0145984 -8.81043e-005 2.07088e-006 -1.00042e-006 1.12575e-006 1.43614e-006 -1.10302e-006 1.24141e-006 1.58328e-006 -0.0187522 -0.00116952 5.7714e-005 -1.0004e-006 1.1257e-006 1.43619e-006 -1.10302e-006 1.24141e-006 1.58328e-006 -0.0122043 -0.00322752 0.000675246 -1.00037e-006 1.12578e-006 1.43615e-006 -1.10302e-006 1.24141e-006 1.58328e-006 1.88107e-006 5.08572e-006 -3.54387e-007 2.00946e-008 2.54625e-006 9.98868e-007 7.75769 3.546 22.1292 61.3712 -1.82688 15.8448 10.2599 17.1358 54.56 -8.89755 4.3018 -1.95917 4.96062e-007 6.09218e-007 -7.22104e-007 -3.8886e-006 7.67442e-006 4.15302e-006 -4.96062e-007 -6.09218e-007 7.22104e-007 4.96062e-007 6.09218e-007 -7.22104e-007 0.0149768 -9.09721e-005 3.10121e-006 -4.96063e-007 -6.09124e-007 7.22184e-007 4.96062e-007 6.09218e-007 -7.22104e-007 0.0190109 -0.0011889 -5.89155e-005 -4.96057e-007 -6.09098e-007 7.22211e-007 4.96062e-007 6.09218e-007 -7.22104e-007 0.0122699 -0.00324446 -0.000675878 -4.9604e-007 -6.09143e-007 7.22184e-007 4.96062e-007 6.09218e-007 -7.22104e-007 -3.8886e-006 7.67442e-006 4.15302e-006 -4.96062e-007 -6.09218e-007 7.22104e-007 -5.59734 -23.9725 -13.5474 0.760943 31.9173 -0.16914 9.11857 -14.7791 -4.41777 -2.19269e-009 1.31275e-008 -9.05812e-010 8.03652 -23.9791 13.8049 -0.836361 31.762 0.161563 -11.3331 -14.8929 4.07044 8.07126e-007 -1.31495e-007 -1.6951e-006 
1.4569 67.7893 66.4141 -7.8445e-015 -6.72832 180 -0.185509 4.55717 -0.372966 -0.342781 9.11544 -0.734577 -0.342781 9.11543 -0.734577 0.233683 0.348447 -0.0162603 4.38443e-008 0.234645 -1.77257e-007 -5.8218 2.9994 -20.4222 -60.9923 -2.08027 -16.0918 -9.94184 16.8263 -53.5355 5.83406 2.94785 0.372637 8.99123e-007 1.5568e-006 -2.5232e-007 -7.7025e-007 8.65536e-007 1.10458e-006 -1.027e-007 1.15405e-007 1.47277e-007 8.99123e-007 1.5568e-006 -2.5232e-007 -0.0146374 -9.37137e-005 6.53926e-007 -1.027e-007 1.15386e-007 1.47292e-007 8.99123e-007 1.5568e-006 -2.5232e-007 -0.018732 -0.00117 5.24402e-005 -1.02699e-007 1.15381e-007 1.47297e-007 8.99123e-007 1.5568e-006 -2.5232e-007 -0.0121982 -0.00322166 0.000673653 -1.02695e-007 1.1539e-007 1.47293e-007 8.99123e-007 1.5568e-006 -2.5232e-007 -7.7025e-007 8.65536e-007 1.10458e-006 -1.027e-007 1.15405e-007 1.47277e-007 7.9494 3.25344 22.4433 61.2379 -1.94034 16.0375 10.0773 16.9385 53.8108 -8.31213 3.87782 -2.2195 3.47551e-007 4.26237e-007 -5.05455e-007 4.96501e-007 6.0891e-007 -7.22078e-007 3.47551e-007 4.26237e-007 -5.05455e-007 3.47551e-007 4.26237e-007 -5.05455e-007 0.0149655 -8.91569e-005 2.1182e-006 3.47552e-007 4.26171e-007 -5.05511e-007 3.47551e-007 4.26237e-007 -5.05455e-007 0.0189809 -0.00119496 -5.88499e-005 3.47547e-007 4.26153e-007 -5.05529e-007 3.47551e-007 4.26237e-007 -5.05455e-007 0.0122543 -0.00324555 -0.000681928 3.47535e-007 4.26185e-007 -5.0551e-007 3.47551e-007 4.26237e-007 -5.05455e-007 4.96501e-007 6.0891e-007 -7.22078e-007 3.47551e-007 4.26237e-007 -5.05455e-007 -5.30341 -22.3914 -12.8913 0.813745 31.525 -0.17224 9.11107 -14.8211 -4.89072 5.48492e-008 -3.28172e-007 2.28105e-008 7.85972 -22.3794 13.4032 -0.901628 31.3679 0.176293 -11.3315 -14.8907 4.07088 -1.40097e-007 -2.62029e-008 -2.82571e-006 
1.45726 67.8493 66.0949 -7.6868e-015 -5.45517 180 -0.186248 4.71218 -0.372947 -0.343347 9.42545 -0.734207 -0.343347 9.42545 -0.734208 0.35029 0.524411 -0.0327128 5.0103e-008 0.352155 -1.70519e-008 -6.03026 2.71242 -20.7482 -60.8265 -2.20949 -16.2732 -9.74484 16.6231 -52.7453 5.22205 2.48602 0.541705 2.05564e-007 -2.30683e-007 -2.94542e-007 2.56955e-008 -2.88353e-008 -3.68178e-008 1.54173e-007 -1.73012e-007 -2.20907e-007 2.05564e-007 -2.30683e-007 -2.94542e-007 -0.0146289 -9.41621e-005 -1.53847e-006 -8.55177e-007 -1.60745e-006 1.78037e-007 2.05564e-007 -2.30683e-007 -2.94542e-007 -0.0187691 -0.00117709 5.69649e-005 1.54171e-007 -1.72976e-007 -2.20937e-007 2.05564e-007 -2.30683e-007 -2.94542e-007 -0.0122657 -0.00324404 0.000674724 -8.54941e-007 -1.60776e-006 1.78163e-007 2.05564e-007 -2.30683e-007 -2.94542e-007 2.56955e-008 -2.88353e-008 -3.68178e-008 1.54173e-007 -1.73012e-007 -2.20907e-007 8.14271 2.96194 22.7583 61.105 -2.05425 16.2299 9.89214 16.7434 53.061 -7.72853 3.45091 -2.47553 -8.94396e-007 -1.09557e-006 1.29968e-006 -3.97509e-007 -4.86921e-007 5.77635e-007 -4.96887e-008 -6.08651e-008 7.22044e-008 -8.94396e-007 -1.09557e-006 1.29968e-006 0.0149888 -9.3934e-005 1.73358e-006 -4.96888e-008 -6.08557e-008 7.22124e-008 -8.94396e-007 -1.09557e-006 1.29968e-006 0.019013 -0.00119683 -6.13114e-005 -4.96882e-008 -6.08532e-008 7.2215e-008 -8.94396e-007 -1.09557e-006 1.29968e-006 0.0122951 -0.00325526 -0.000674175 -4.96864e-008 -6.08576e-008 7.22124e-008 -8.94396e-007 -1.09557e-006 1.29968e-006 -3.97509e-007 -4.86921e-007 5.77635e-007 -4.96887e-008 -6.08651e-008 7.22044e-008 -5.03018 -20.8016 -12.2485 0.86538 31.1321 -0.17462 9.10346 -14.8627 -5.36387 8.81514e-008 -3.94386e-007 1.71598e-006 7.69546 -20.7733 13.0097 -0.965564 30.9734 0.190138 -11.3302 -14.8883 4.07128 -1.72745e-008 -1.05065e-007 -7.17239e-009 
